<?xml version="1.0" standalone="no"?>
<!DOCTYPE svg PUBLIC "-//W3C//DTD SVG 20010904//EN"
 "http://www.w3.org/TR/2001/REC-SVG-20010904/DTD/svg10.dtd">
<svg version="1.0" xmlns="http://www.w3.org/2000/svg"
 width="1024.000000pt" height="1024.000000pt" viewBox="0 0 1024.000000 1024.000000"
 preserveAspectRatio="xMidYMid meet">
<metadata>
Created by potrace 1.14, written by Peter Selinger 2001-2017
</metadata>
<g transform="translate(0.000000,1024.000000) scale(0.100000,-0.100000)"
fill="#000000" stroke="none">
<path d="M5051 9703 c-135 -2 -249 -7 -255 -12 -6 -5 -56 -12 -111 -16 -116
-7 -330 -40 -395 -60 -25 -8 -90 -22 -145 -31 -55 -9 -134 -29 -177 -44 -42
-15 -95 -31 -118 -35 -61 -10 -426 -146 -564 -209 -216 -100 -473 -236 -487
-258 -3 -5 -32 -22 -65 -39 -68 -34 -84 -45 -236 -157 -124 -91 -223 -169
-247 -192 -9 -9 -41 -34 -71 -57 -30 -23 -98 -84 -151 -135 -52 -51 -113 -109
-135 -129 -21 -20 -57 -57 -79 -84 -22 -26 -49 -58 -60 -70 -91 -102 -192
-220 -199 -233 -5 -10 -28 -39 -51 -67 -23 -27 -51 -64 -61 -81 -11 -17 -32
-46 -47 -65 -46 -55 -171 -257 -233 -375 -31 -60 -63 -116 -69 -124 -7 -8 -38
-73 -69 -145 -31 -71 -70 -157 -85 -190 -56 -118 -146 -365 -160 -440 -10 -55
-28 -126 -67 -260 -13 -48 -60 -322 -86 -510 -18 -128 -18 -872 0 -1020 26
-210 64 -424 99 -560 14 -55 32 -127 40 -160 29 -117 77 -262 109 -332 7 -17
14 -34 14 -38 0 -8 39 -102 76 -182 13 -28 24 -57 24 -62 0 -6 5 -11 10 -11 6
0 10 -5 10 -11 0 -12 141 -301 151 -309 4 -3 18 -28 33 -57 14 -29 35 -61 46
-71 11 -10 34 -47 51 -83 17 -35 42 -77 56 -94 14 -16 53 -73 87 -127 33 -53
88 -128 121 -168 149 -178 270 -317 294 -335 14 -11 71 -67 126 -124 55 -57
125 -122 155 -144 30 -23 60 -46 65 -52 18 -20 138 -120 195 -161 30 -22 80
-58 110 -80 64 -47 291 -200 340 -229 215 -128 617 -319 724 -344 27 -7 67
-21 90 -33 72 -37 422 -136 596 -168 58 -11 137 -27 175 -35 300 -65 687 -84
1155 -57 124 7 233 18 242 23 10 5 30 9 45 9 16 0 66 9 113 20 47 11 121 27
165 36 167 33 524 127 580 153 22 10 101 42 175 70 74 29 149 58 165 66 17 8
53 23 81 34 27 10 66 28 85 39 19 10 69 39 112 63 43 24 95 52 115 63 20 10
44 24 52 31 8 7 44 27 80 46 59 30 148 85 160 100 3 3 50 36 105 74 141 96
282 203 327 247 21 20 68 61 105 91 90 71 369 365 474 497 46 58 89 110 95
115 7 6 30 37 51 70 21 33 57 85 79 115 23 30 44 65 48 77 4 11 17 32 30 44
13 13 34 44 48 69 14 25 43 72 65 105 21 33 52 85 68 115 93 178 178 357 210
440 20 52 42 104 50 116 7 11 25 54 40 95 27 74 30 86 65 209 10 36 25 90 33
120 44 158 93 401 117 580 31 242 43 759 21 995 -14 157 -41 367 -51 400 -4
17 -13 62 -20 100 -11 71 -40 198 -65 290 -7 28 -19 77 -25 110 -7 33 -18 71
-25 85 -7 14 -29 74 -49 133 -20 59 -54 145 -75 190 -21 45 -63 136 -91 202
-29 66 -57 122 -61 125 -5 3 -19 30 -33 60 -14 30 -43 84 -65 120 -22 36 -56
94 -77 130 -20 36 -52 86 -70 111 -19 26 -34 50 -34 53 0 8 -116 165 -161 219
-17 21 -45 57 -62 80 -17 23 -33 44 -37 47 -4 3 -26 28 -50 55 -114 133 -165
187 -280 300 -123 120 -189 180 -306 280 -109 93 -130 108 -379 274 -44 30
-99 67 -123 82 -23 16 -45 29 -48 29 -3 0 -20 11 -38 25 -76 58 -502 261 -701
335 -60 22 -117 44 -125 49 -8 4 -51 18 -95 31 -96 27 -179 52 -260 79 -33 11
-100 25 -150 31 -49 7 -108 17 -130 22 -158 38 -225 49 -415 67 -269 25 -328
27 -629 24z"/>
</g>
</svg>
